<?xml version="1.0" encoding="UTF-8"?>
<svg xmlns="http://www.w3.org/2000/svg" xmlns:xlink="http://www.w3.org/1999/xlink" viewBox="0 0 100 100" width="100px" height="100px">
<defs>
<linearGradient id="linear0" gradientUnits="userSpaceOnUse" x1="86.01075" y1="24.20631" x2="86.01075" y2="147.8125" gradientTransform="matrix(0.581395,0,0,0.581395,0,0)">
<stop offset="0" style="stop-color:rgb(3.137255%,85.490197%,59.215689%);stop-opacity:1;"/>
<stop offset="1" style="stop-color:rgb(4.313726%,63.921571%,37.64706%);stop-opacity:1;"/>
</linearGradient>
<linearGradient id="linear1" gradientUnits="userSpaceOnUse" x1="74.228752" y1="45.9025" x2="74.228752" y2="132.466873" gradientTransform="matrix(0.581395,0,0,0.581395,0,0)">
<stop offset="0" style="stop-color:rgb(34.901962%,97.647059%,77.64706%);stop-opacity:1;"/>
<stop offset="1" style="stop-color:rgb(17.647059%,94.509804%,60.784316%);stop-opacity:1;"/>
</linearGradient>
</defs>
<g id="surface21195854">
<path style=" stroke:none;fill-rule:nonzero;fill:url(#linear0);" d="M 85.15625 14.3125 C 84.78125 14.078125 84.34375 14.015625 83.9375 14.125 L 34.015625 14.125 C 23.0625 14.125 14.15625 23.03125 14.15625 33.984375 L 14.15625 84.140625 C 14.109375 84.453125 14.140625 84.78125 14.296875 85.078125 C 14.5625 85.609375 15.09375 85.9375 15.6875 85.9375 L 66.015625 85.9375 C 76.96875 85.9375 85.875 77.03125 85.875 66.078125 L 85.875 15.625 C 85.875 15.09375 85.609375 14.59375 85.15625 14.3125 Z M 17.28125 33.984375 C 17.28125 24.75 24.78125 17.25 34.015625 17.25 L 75.765625 17.25 C 64 22.46875 52.390625 30.953125 44.140625 40.53125 C 32.734375 53.703125 26.609375 62.53125 19.296875 74.25 C 19.28125 74.28125 19.265625 74.3125 19.25 74.34375 L 17.28125 78.046875 Z M 64.953125 26.6875 C 60.625 30.59375 56.609375 35.296875 54.28125 40.640625 C 53.109375 43.375 52.203125 46.28125 51.34375 49.09375 C 49.53125 54.984375 47.828125 60.546875 43.734375 64.46875 C 40.859375 67.234375 37.15625 68.8125 33.25 70.484375 C 31.515625 71.21875 29.71875 71.984375 28 72.859375 C 26.265625 73.75 23.796875 75.25 21.359375 77.015625 L 21.984375 75.859375 C 29.1875 64.296875 35.234375 55.5625 46.5 42.578125 C 51.609375 36.65625 58.015625 31.1875 64.953125 26.6875 Z M 82.75 66.078125 C 82.75 75.3125 75.25 82.8125 66.015625 82.8125 L 19.203125 82.8125 C 22.234375 79.953125 26.625 77.09375 29.421875 75.640625 C 31.046875 74.8125 32.78125 74.078125 34.46875 73.359375 C 38.46875 71.65625 42.609375 69.890625 45.90625 66.734375 C 50.578125 62.234375 52.484375 56.015625 54.328125 50 C 55.171875 47.28125 56.046875 44.453125 57.140625 41.890625 C 62.28125 30.0625 77.109375 21.21875 82.75 18.171875 Z M 82.75 66.078125 "/>
<path style=" stroke:none;fill-rule:nonzero;fill:url(#linear1);" d="M 64.953125 26.6875 C 60.625 30.59375 56.609375 35.296875 54.28125 40.640625 C 53.109375 43.375 52.203125 46.28125 51.34375 49.09375 C 49.53125 54.984375 47.828125 60.546875 43.734375 64.46875 C 40.859375 67.234375 37.15625 68.8125 33.25 70.484375 C 31.515625 71.21875 29.71875 71.984375 28 72.859375 C 26.265625 73.75 23.796875 75.25 21.359375 77.015625 L 21.984375 75.859375 C 29.1875 64.296875 35.234375 55.5625 46.5 42.578125 C 51.609375 36.65625 58.015625 31.1875 64.953125 26.6875 Z M 64.953125 26.6875 "/>
</g>
</svg>
