<svg xmlns="http://www.w3.org/2000/svg" x="0px" y="0px"
width="64" height="64"
viewBox="0 0 172 172"
style=" fill:#000000;"><defs><linearGradient x1="86.01075" y1="24.20631" x2="86.01075" y2="147.8125" gradientUnits="userSpaceOnUse" id="color-1_79893_gr1"><stop offset="0" stop-color="#1ae5ff"></stop><stop offset="1" stop-color="#0072ff"></stop></linearGradient><linearGradient x1="74.22875" y1="45.9025" x2="74.22875" y2="132.46687" gradientUnits="userSpaceOnUse" id="color-2_79893_gr2"><stop offset="0" stop-color="#8af1ff"></stop><stop offset="1" stop-color="#70afff"></stop></linearGradient></defs><g fill="none" fill-rule="nonzero" stroke="none" stroke-width="1" stroke-linecap="butt" stroke-linejoin="miter" stroke-miterlimit="10" stroke-dasharray="" stroke-dashoffset="0" font-family="none" font-weight="none" font-size="none" text-anchor="none" style="mix-blend-mode: normal"><path d="M0,172v-172h172v172z" fill="none"></path><g><path d="M146.46875,24.6175c-0.645,-0.40312 -1.3975,-0.51062 -2.09625,-0.3225h-85.86562c-18.83938,0 -34.15813,15.31875 -34.15813,34.15813v86.26875c-0.08062,0.5375 -0.02687,1.10187 0.24188,1.6125c0.45688,0.91375 1.37063,1.47813 2.39188,1.47813h86.56438c18.83937,0 34.15813,-15.31875 34.15813,-34.15812v-86.77937c0,-0.91375 -0.45688,-1.77375 -1.23625,-2.2575zM29.72375,58.45313c0,-15.88312 12.9,-28.78312 28.78313,-28.78312h71.81c-20.23688,8.97625 -40.205,23.56937 -54.395,40.04375c-19.61875,22.65563 -30.15375,37.84 -42.73125,57.99625c-0.02688,0.05375 -0.05375,0.1075 -0.08062,0.16125l-3.38625,6.36938zM111.71938,45.9025c-7.44438,6.71875 -14.35125,14.80812 -18.35562,23.99937c-2.01562,4.70313 -3.57438,9.70188 -5.0525,14.53938c-3.1175,10.13187 -6.04687,19.69938 -13.08813,26.445c-4.945,4.75688 -11.31438,7.47125 -18.03313,10.34688c-2.98312,1.26312 -6.07375,2.58 -9.03,4.085c-2.98313,1.53187 -7.22937,4.11187 -11.42187,7.14875l1.075,-1.98875c12.38938,-19.8875 22.79,-34.91062 42.16687,-57.24375c8.78813,-10.18563 19.80688,-19.59188 31.73938,-27.33188zM142.33,113.65438c0,15.88312 -12.9,28.78313 -28.78313,28.78313h-80.5175c5.21375,-4.91813 12.76563,-9.83625 17.57625,-12.33563c2.795,-1.42437 5.77812,-2.6875 8.68062,-3.92375c6.88,-2.92938 14.00187,-5.96625 19.6725,-11.395c8.03562,-7.74 11.31437,-18.43625 14.48563,-28.78312c1.45125,-4.67625 2.95625,-9.54063 4.8375,-13.94813c8.84187,-20.34438 34.34625,-35.55563 44.04813,-40.79625z" fill="url(#color-1_79893_gr1)"></path><path d="M111.71938,45.9025c-7.44438,6.71875 -14.35125,14.80812 -18.35562,23.99937c-2.01562,4.70313 -3.57438,9.70188 -5.0525,14.53938c-3.1175,10.13187 -6.04687,19.69938 -13.08813,26.445c-4.945,4.75688 -11.31438,7.47125 -18.03313,10.34688c-2.98312,1.26312 -6.07375,2.58 -9.03,4.085c-2.98313,1.53187 -7.22937,4.11187 -11.42187,7.14875l1.075,-1.98875c12.38938,-19.8875 22.79,-34.91062 42.16687,-57.24375c8.78813,-10.18563 19.80688,-19.59188 31.73938,-27.33188z" fill="url(#color-2_79893_gr2)"></path></g></g></svg>
