<?xml version="1.0" encoding="UTF-8"?>
<svg width="700pt" height="700pt" version="1.1" viewBox="0 0 700 700" xmlns="http://www.w3.org/2000/svg" xmlns:xlink="http://www.w3.org/1999/xlink">
 <defs>
  <symbol id="g" overflow="visible">
   <path d="m18.766-1.125c-0.96875 0.5-1.9805 0.875-3.0312 1.125-1.043 0.25781-2.1367 0.39062-3.2812 0.39062-3.3984 0-6.0898-0.94531-8.0781-2.8438-1.9922-1.9062-2.9844-4.4844-2.9844-7.7344 0-3.2578 0.99219-5.8359 2.9844-7.7344 1.9883-1.9062 4.6797-2.8594 8.0781-2.8594 1.1445 0 2.2383 0.13281 3.2812 0.39062 1.0508 0.25 2.0625 0.625 3.0312 1.125v4.2188c-0.98047-0.65625-1.9453-1.1406-2.8906-1.4531-0.94922-0.3125-1.9492-0.46875-3-0.46875-1.875 0-3.3516 0.60547-4.4219 1.8125-1.0742 1.1992-1.6094 2.8555-1.6094 4.9688 0 2.1055 0.53516 3.7617 1.6094 4.9688 1.0703 1.1992 2.5469 1.7969 4.4219 1.7969 1.0508 0 2.0508-0.14844 3-0.45312 0.94531-0.3125 1.9102-0.80078 2.8906-1.4688z"/>
  </symbol>
  <symbol id="a" overflow="visible">
   <path d="m13.734-11.141c-0.4375-0.19531-0.87109-0.34375-1.2969-0.4375-0.41797-0.10156-0.83984-0.15625-1.2656-0.15625-1.2617 0-2.2305 0.40625-2.9062 1.2188-0.67969 0.80469-1.0156 1.9531-1.0156 3.4531v7.0625h-4.8906v-15.312h4.8906v2.5156c0.625-1 1.3438-1.7266 2.1562-2.1875 0.82031-0.46875 1.8008-0.70312 2.9375-0.70312 0.16406 0 0.34375 0.011719 0.53125 0.03125 0.19531 0.011719 0.47656 0.039062 0.84375 0.078125z"/>
  </symbol>
  <symbol id="b" overflow="visible">
   <path d="m17.641-7.7031v1.4062h-11.453c0.125 1.1484 0.53906 2.0078 1.25 2.5781 0.70703 0.57422 1.7031 0.85938 2.9844 0.85938 1.0312 0 2.082-0.14844 3.1562-0.45312 1.082-0.3125 2.1914-0.77344 3.3281-1.3906v3.7656c-1.1562 0.4375-2.3125 0.76562-3.4688 0.98438-1.1562 0.22656-2.3125 0.34375-3.4688 0.34375-2.7734 0-4.9297-0.70312-6.4688-2.1094-1.5312-1.4062-2.2969-3.3789-2.2969-5.9219 0-2.5 0.75391-4.4609 2.2656-5.8906 1.5078-1.4375 3.582-2.1562 6.2188-2.1562 2.4062 0 4.332 0.73047 5.7812 2.1875 1.4453 1.4492 2.1719 3.3828 2.1719 5.7969zm-5.0312-1.625c0-0.92578-0.27344-1.6719-0.8125-2.2344-0.54297-0.57031-1.25-0.85938-2.125-0.85938-0.94922 0-1.7188 0.26562-2.3125 0.79688s-0.96484 1.2969-1.1094 2.2969z"/>
  </symbol>
  <symbol id="e" overflow="visible">
   <path d="m9.2188-6.8906c-1.0234 0-1.793 0.17188-2.3125 0.51562-0.51172 0.34375-0.76562 0.85547-0.76562 1.5312 0 0.625 0.20703 1.1172 0.625 1.4688 0.41406 0.34375 0.98828 0.51562 1.7188 0.51562 0.92578 0 1.7031-0.32812 2.3281-0.98438 0.63281-0.66406 0.95312-1.4922 0.95312-2.4844v-0.5625zm7.4688-1.8438v8.7344h-4.9219v-2.2656c-0.65625 0.92969-1.3984 1.6055-2.2188 2.0312-0.82422 0.41406-1.8242 0.625-3 0.625-1.5859 0-2.8711-0.45703-3.8594-1.375-0.99219-0.92578-1.4844-2.1289-1.4844-3.6094 0-1.7891 0.61328-3.1016 1.8438-3.9375 1.2383-0.84375 3.1797-1.2656 5.8281-1.2656h2.8906v-0.39062c0-0.76953-0.30859-1.332-0.92188-1.6875-0.61719-0.36328-1.5703-0.54688-2.8594-0.54688-1.0547 0-2.0312 0.10547-2.9375 0.3125-0.89844 0.21094-1.7305 0.52344-2.5 0.9375v-3.7344c1.0391-0.25 2.0859-0.44141 3.1406-0.57812 1.0625-0.13281 2.125-0.20312 3.1875-0.20312 2.7578 0 4.75 0.54688 5.9688 1.6406 1.2266 1.0859 1.8438 2.8555 1.8438 5.3125z"/>
  </symbol>
  <symbol id="d" overflow="visible">
   <path d="m7.7031-19.656v4.3438h5.0469v3.5h-5.0469v6.5c0 0.71094 0.14062 1.1875 0.42188 1.4375s0.83594 0.375 1.6719 0.375h2.5156v3.5h-4.1875c-1.9375 0-3.3125-0.39844-4.125-1.2031-0.80469-0.8125-1.2031-2.1797-1.2031-4.1094v-6.5h-2.4219v-3.5h2.4219v-4.3438z"/>
  </symbol>
  <symbol id="k" overflow="visible">
   <path d="m12.766-13.078v-8.2031h4.9219v21.281h-4.9219v-2.2188c-0.66797 0.90625-1.4062 1.5703-2.2188 1.9844s-1.7578 0.625-2.8281 0.625c-1.8867 0-3.4336-0.75-4.6406-2.25-1.2109-1.5-1.8125-3.4258-1.8125-5.7812 0-2.3633 0.60156-4.2969 1.8125-5.7969 1.207-1.5 2.7539-2.25 4.6406-2.25 1.0625 0 2 0.21484 2.8125 0.64062 0.82031 0.42969 1.5664 1.0859 2.2344 1.9688zm-3.2188 9.9219c1.0391 0 1.8359-0.37891 2.3906-1.1406 0.55078-0.76953 0.82812-1.8828 0.82812-3.3438 0-1.457-0.27734-2.5664-0.82812-3.3281-0.55469-0.76953-1.3516-1.1562-2.3906-1.1562-1.043 0-1.8398 0.38672-2.3906 1.1562-0.55469 0.76172-0.82812 1.8711-0.82812 3.3281 0 1.4609 0.27344 2.5742 0.82812 3.3438 0.55078 0.76172 1.3477 1.1406 2.3906 1.1406z"/>
  </symbol>
  <symbol id="j" overflow="visible">
   <path d="m10.5-3.1562c1.0508 0 1.8516-0.37891 2.4062-1.1406 0.55078-0.76953 0.82812-1.8828 0.82812-3.3438 0-1.457-0.27734-2.5664-0.82812-3.3281-0.55469-0.76953-1.3555-1.1562-2.4062-1.1562-1.0547 0-1.8594 0.38672-2.4219 1.1562-0.55469 0.77344-0.82812 1.8828-0.82812 3.3281 0 1.4492 0.27344 2.5586 0.82812 3.3281 0.5625 0.77344 1.3672 1.1562 2.4219 1.1562zm-3.25-9.9219c0.67578-0.88281 1.4219-1.5391 2.2344-1.9688 0.82031-0.42578 1.7656-0.64062 2.8281-0.64062 1.8945 0 3.4453 0.75 4.6562 2.25 1.207 1.5 1.8125 3.4336 1.8125 5.7969 0 2.3555-0.60547 4.2812-1.8125 5.7812-1.2109 1.5-2.7617 2.25-4.6562 2.25-1.0625 0-2.0078-0.21094-2.8281-0.625-0.8125-0.42578-1.5586-1.0859-2.2344-1.9844v2.2188h-4.8906v-21.281h4.8906z"/>
  </symbol>
  <symbol id="i" overflow="visible">
   <path d="m0.34375-15.312h4.8906l4.125 10.391 3.5-10.391h4.8906l-6.4375 16.766c-0.64844 1.6953-1.4023 2.8828-2.2656 3.5625-0.86719 0.6875-2 1.0312-3.4062 1.0312h-2.8438v-3.2188h1.5312c0.83203 0 1.4375-0.13672 1.8125-0.40625 0.38281-0.26172 0.67969-0.73047 0.89062-1.4062l0.14062-0.42188z"/>
  </symbol>
  <symbol id="h" overflow="visible">
   <path d="m20.922-1.5156c-1.3125 0.63672-2.6797 1.1172-4.0938 1.4375-1.4062 0.3125-2.8672 0.46875-4.375 0.46875-3.3984 0-6.0898-0.94531-8.0781-2.8438-1.9922-1.9062-2.9844-4.4844-2.9844-7.7344 0-3.2891 1.0078-5.8789 3.0312-7.7656 2.0312-1.8828 4.8047-2.8281 8.3281-2.8281 1.3516 0 2.6484 0.13281 3.8906 0.39062 1.25 0.25 2.4258 0.625 3.5312 1.125v4.2188c-1.1484-0.64453-2.2812-1.125-3.4062-1.4375-1.125-0.32031-2.25-0.48438-3.375-0.48438-2.1055 0-3.7266 0.58984-4.8594 1.7656-1.125 1.168-1.6875 2.8398-1.6875 5.0156 0 2.1562 0.54688 3.8242 1.6406 5 1.0938 1.1797 2.6445 1.7656 4.6562 1.7656 0.53906 0 1.0469-0.03125 1.5156-0.09375 0.47656-0.070313 0.89844-0.17969 1.2656-0.32812v-3.9688h-3.2031v-3.5156h8.2031z"/>
  </symbol>
  <symbol id="u" overflow="visible">
   <path d="m12.766-2.5938c-0.66797 0.88672-1.4062 1.543-2.2188 1.9688-0.8125 0.41797-1.7578 0.625-2.8281 0.625-1.8672 0-3.4062-0.73438-4.625-2.2031-1.2188-1.4766-1.8281-3.3516-1.8281-5.625 0-2.2891 0.60938-4.1641 1.8281-5.625 1.2188-1.4688 2.7578-2.2031 4.625-2.2031 1.0703 0 2.0156 0.21484 2.8281 0.64062 0.8125 0.41797 1.5508 1.0742 2.2188 1.9688v-2.2656h4.9219v13.766c0 2.457-0.77734 4.3359-2.3281 5.6406-1.5547 1.3008-3.8086 1.9531-6.7656 1.9531-0.94922 0-1.8711-0.074219-2.7656-0.21875-0.89844-0.14844-1.7969-0.37109-2.7031-0.67188v-3.8125c0.86328 0.48828 1.7031 0.85156 2.5156 1.0938 0.82031 0.23828 1.6484 0.35938 2.4844 0.35938 1.6016 0 2.7734-0.35156 3.5156-1.0469 0.75-0.69922 1.125-1.7969 1.125-3.2969zm-3.2188-9.5312c-1.0117 0-1.8047 0.375-2.375 1.125-0.5625 0.74219-0.84375 1.7969-0.84375 3.1719 0 1.3984 0.26953 2.4609 0.8125 3.1875 0.55078 0.71875 1.3516 1.0781 2.4062 1.0781 1.0195 0 1.8125-0.36719 2.375-1.1094 0.5625-0.75 0.84375-1.8008 0.84375-3.1562 0-1.375-0.28125-2.4297-0.84375-3.1719-0.5625-0.75-1.3555-1.125-2.375-1.125z"/>
  </symbol>
  <symbol id="c" overflow="visible">
   <path d="m9.6406-12.188c-1.0859 0-1.9141 0.39062-2.4844 1.1719-0.57422 0.78125-0.85938 1.9062-0.85938 3.375s0.28516 2.5938 0.85938 3.375c0.57031 0.77344 1.3984 1.1562 2.4844 1.1562 1.0625 0 1.875-0.38281 2.4375-1.1562 0.57031-0.78125 0.85938-1.9062 0.85938-3.375s-0.28906-2.5938-0.85938-3.375c-0.5625-0.78125-1.375-1.1719-2.4375-1.1719zm0-3.5c2.6328 0 4.6914 0.71484 6.1719 2.1406 1.4766 1.418 2.2188 3.3867 2.2188 5.9062 0 2.5117-0.74219 4.4805-2.2188 5.9062-1.4805 1.418-3.5391 2.125-6.1719 2.125-2.6484 0-4.7148-0.70703-6.2031-2.125-1.4922-1.4258-2.2344-3.3945-2.2344-5.9062 0-2.5195 0.74219-4.4883 2.2344-5.9062 1.4883-1.4258 3.5547-2.1406 6.2031-2.1406z"/>
  </symbol>
  <symbol id="t" overflow="visible">
   <path d="m14.312-14.828v3.7188c-1.043-0.4375-2.0547-0.76562-3.0312-0.98438-0.98047-0.21875-1.9023-0.32812-2.7656-0.32812-0.92969 0-1.6211 0.11719-2.0781 0.34375-0.44922 0.23047-0.67188 0.58984-0.67188 1.0781 0 0.38672 0.17188 0.68359 0.51562 0.89062 0.34375 0.21094 0.95703 0.36719 1.8438 0.46875l0.85938 0.125c2.5078 0.32422 4.1953 0.85156 5.0625 1.5781 0.86328 0.73047 1.2969 1.8711 1.2969 3.4219 0 1.6367-0.60547 2.8672-1.8125 3.6875-1.1992 0.8125-2.9922 1.2188-5.375 1.2188-1.0234 0-2.0742-0.078125-3.1562-0.23438-1.0742-0.15625-2.1797-0.39453-3.3125-0.71875v-3.7188c0.96875 0.48047 1.9609 0.83984 2.9844 1.0781 1.0312 0.23047 2.0781 0.34375 3.1406 0.34375 0.95703 0 1.6758-0.12891 2.1562-0.39062 0.47656-0.26953 0.71875-0.66406 0.71875-1.1875 0-0.4375-0.16797-0.75781-0.5-0.96875-0.33594-0.21875-0.99609-0.38281-1.9844-0.5l-0.85938-0.10938c-2.1797-0.26953-3.7031-0.77344-4.5781-1.5156-0.875-0.73828-1.3125-1.8594-1.3125-3.3594 0-1.625 0.55078-2.8281 1.6562-3.6094 1.1133-0.78906 2.8203-1.1875 5.125-1.1875 0.89453 0 1.8359 0.074219 2.8281 0.21875 1 0.13672 2.082 0.35156 3.25 0.64062z"/>
  </symbol>
  <symbol id="f" overflow="visible">
   <path d="m17.75-9.3281v9.3281h-4.9219v-7.1406c0-1.3203-0.03125-2.2344-0.09375-2.7344s-0.16797-0.86719-0.3125-1.1094c-0.1875-0.3125-0.44922-0.55469-0.78125-0.73438-0.32422-0.17578-0.69531-0.26562-1.1094-0.26562-1.0234 0-1.8242 0.39844-2.4062 1.1875-0.58594 0.78125-0.875 1.8711-0.875 3.2656v7.5312h-4.8906v-15.312h4.8906v2.2344c0.73828-0.88281 1.5195-1.5391 2.3438-1.9688 0.83203-0.42578 1.75-0.64062 2.75-0.64062 1.7695 0 3.1133 0.54688 4.0312 1.6406 0.91406 1.0859 1.375 2.6562 1.375 4.7188z"/>
  </symbol>
  <symbol id="s" overflow="visible">
   <path d="m12.422-21.281v3.2188h-2.7031c-0.6875 0-1.1719 0.125-1.4531 0.375-0.27344 0.25-0.40625 0.6875-0.40625 1.3125v1.0625h4.1875v3.5h-4.1875v11.812h-4.8906v-11.812h-2.4375v-3.5h2.4375v-1.0625c0-1.6641 0.46094-2.8984 1.3906-3.7031 0.92578-0.80078 2.3672-1.2031 4.3281-1.2031z"/>
  </symbol>
  <symbol id="r" overflow="visible">
   <path d="m16.547-12.766c0.61328-0.94531 1.3477-1.6719 2.2031-2.1719 0.85156-0.5 1.7891-0.75 2.8125-0.75 1.7578 0 3.0977 0.54688 4.0156 1.6406 0.92578 1.0859 1.3906 2.6562 1.3906 4.7188v9.3281h-4.9219v-7.9844-0.35938c0.007813-0.13281 0.015625-0.32031 0.015625-0.5625 0-1.082-0.16406-1.8633-0.48438-2.3438-0.3125-0.48828-0.82422-0.73438-1.5312-0.73438-0.92969 0-1.6484 0.38672-2.1562 1.1562-0.51172 0.76172-0.77344 1.8672-0.78125 3.3125v7.5156h-4.9219v-7.9844c0-1.6953-0.14844-2.7852-0.4375-3.2656-0.29297-0.48828-0.8125-0.73438-1.5625-0.73438-0.9375 0-1.6641 0.38672-2.1719 1.1562-0.51172 0.76172-0.76562 1.8594-0.76562 3.2969v7.5312h-4.9219v-15.312h4.9219v2.2344c0.60156-0.86328 1.2891-1.5156 2.0625-1.9531 0.78125-0.4375 1.6406-0.65625 2.5781-0.65625 1.0625 0 2 0.25781 2.8125 0.76562 0.8125 0.51172 1.4258 1.2305 1.8438 2.1562z"/>
  </symbol>
  <symbol id="q" overflow="visible">
   <path d="m17.75-9.3281v9.3281h-4.9219v-7.1094c0-1.3438-0.03125-2.2656-0.09375-2.7656s-0.16797-0.86719-0.3125-1.1094c-0.1875-0.3125-0.44922-0.55469-0.78125-0.73438-0.32422-0.17578-0.69531-0.26562-1.1094-0.26562-1.0234 0-1.8242 0.39844-2.4062 1.1875-0.58594 0.78125-0.875 1.8711-0.875 3.2656v7.5312h-4.8906v-21.281h4.8906v8.2031c0.73828-0.88281 1.5195-1.5391 2.3438-1.9688 0.83203-0.42578 1.75-0.64062 2.75-0.64062 1.7695 0 3.1133 0.54688 4.0312 1.6406 0.91406 1.0859 1.375 2.6562 1.375 4.7188z"/>
  </symbol>
  <symbol id="p" overflow="visible">
   <path d="m2.5781-20.406h5.875l7.4219 14v-14h4.9844v20.406h-5.875l-7.4219-14v14h-4.9844z"/>
  </symbol>
  <symbol id="o" overflow="visible">
   <path d="m2.1875-5.9688v-9.3438h4.9219v1.5312c0 0.83594-0.007813 1.875-0.015625 3.125-0.011719 1.25-0.015625 2.0859-0.015625 2.5 0 1.2422 0.03125 2.1328 0.09375 2.6719 0.070313 0.54297 0.17969 0.93359 0.32812 1.1719 0.20703 0.32422 0.47266 0.57422 0.79688 0.75 0.32031 0.16797 0.69141 0.25 1.1094 0.25 1.0195 0 1.8203-0.39062 2.4062-1.1719 0.58203-0.78125 0.875-1.8672 0.875-3.2656v-7.5625h4.8906v15.312h-4.8906v-2.2188c-0.74219 0.89844-1.5234 1.5586-2.3438 1.9844-0.82422 0.41406-1.7344 0.625-2.7344 0.625-1.7617 0-3.1055-0.53906-4.0312-1.625-0.92969-1.082-1.3906-2.6602-1.3906-4.7344z"/>
  </symbol>
  <symbol id="n" overflow="visible">
   <path d="m2.5781-20.406h8.7344c2.5938 0 4.582 0.57812 5.9688 1.7344 1.3945 1.1484 2.0938 2.7891 2.0938 4.9219 0 2.1367-0.69922 3.7812-2.0938 4.9375-1.3867 1.1562-3.375 1.7344-5.9688 1.7344h-3.4844v7.0781h-5.25zm5.25 3.8125v5.7031h2.9219c1.0195 0 1.8047-0.25 2.3594-0.75 0.5625-0.5 0.84375-1.2031 0.84375-2.1094 0-0.91406-0.28125-1.6172-0.84375-2.1094-0.55469-0.48828-1.3398-0.73438-2.3594-0.73438z"/>
  </symbol>
  <symbol id="m" overflow="visible">
   <path d="m2.3594-15.312h4.8906v15.031c0 2.0508-0.49609 3.6172-1.4844 4.7031-0.98047 1.082-2.4062 1.625-4.2812 1.625h-2.4219v-3.2188h0.85938c0.92578 0 1.5625-0.21094 1.9062-0.625 0.35156-0.41797 0.53125-1.2461 0.53125-2.4844zm0-5.9688h4.8906v4h-4.8906z"/>
  </symbol>
  <symbol id="l" overflow="visible">
   <path d="m14.719-14.828v3.9844c-0.65625-0.45703-1.3242-0.79688-2-1.0156-0.66797-0.21875-1.3594-0.32812-2.0781-0.32812-1.3672 0-2.4336 0.40234-3.2031 1.2031-0.76172 0.79297-1.1406 1.9062-1.1406 3.3438 0 1.4297 0.37891 2.543 1.1406 3.3438 0.76953 0.79297 1.8359 1.1875 3.2031 1.1875 0.75781 0 1.4844-0.10938 2.1719-0.32812 0.6875-0.22656 1.3203-0.56641 1.9062-1.0156v4c-0.76172 0.28125-1.5391 0.48828-2.3281 0.625-0.78125 0.14453-1.5742 0.21875-2.375 0.21875-2.7617 0-4.9219-0.70703-6.4844-2.125-1.5547-1.4141-2.3281-3.3828-2.3281-5.9062 0-2.5312 0.77344-4.5039 2.3281-5.9219 1.5625-1.4141 3.7227-2.125 6.4844-2.125 0.80078 0 1.5938 0.074219 2.375 0.21875 0.78125 0.13672 1.5547 0.35156 2.3281 0.64062z"/>
  </symbol>
 </defs>
 <g>
  <path d="m388.75 43.902c0.035156-0.61328 0.035156-1.2305 0-1.8477-0.082031-5.6484-2.4766-11.016-6.625-14.848-4.1523-3.832-9.6914-5.793-15.328-5.4219l-2.5742 0.33594h-0.83984l-1.6797 0.39062h-0.003906c-2.0742 0.52734-4.1094 1.1797-6.1016 1.9609-4.3828 1.4609-8.5742 3.4336-12.488 5.8789-7.6523 4.7695-14.277 11.012-19.488 18.367-3.0703 4.3672-5.75 8.9961-8.0078 13.832-0.86328-2.1133-1.8945-4.1523-3.082-6.1016-7.3359-11.648-14.504-23.633-22.121-35.281-3.2344-4.9766-9.4297-7.1406-15.062-5.2656h-0.44922l-12.824 4.2578c-4.1992 1.625-8.3438 3.4727-12.488 5.6016h0.003906c-35.066 16.828-63.422 45.008-80.473 79.965-10.16 14.133-17.852 29.887-22.738 46.594-4.8867 16.703-7.6367 33.957-8.1758 51.352-0.61719 17.281 0.35547 34.586 2.9141 51.688 2.4453 17.172 6.1914 34.133 11.199 50.738 1.5156 3.4609 4.3633 6.1641 7.8945 7.5039 4.9297 1.2891 6.8867-3.6953 7.5039-9.7422v-0.003906c1.9141-20.969 2.082-42.059 0.50391-63.055-2.4062-51.855 10.023-103.04 37.52-143.53 3.9727-4.6367 8.1797-9.0664 12.602-13.273 16.184-14.82 34.934-26.57 55.328-34.664 5.9375 7.5586 11.93 15.121 18.09 22.398l0.83984 0.89453v0.003906c-20.219 10.484-37.824 25.375-51.523 43.566-6.582 9.0469-12.211 18.75-16.797 28.953-8.9023 20.055-14.246 41.504-15.793 63.391-1.5195 21.293-0.14453 42.695 4.0859 63.617 1.9844 11.051 5.7656 21.703 11.203 31.527 4.4805 7.3906 9.1289 10.754 12.375 8.5117 6.0469-4.3125 4.5352-21.449 1.6797-45.305-5.4336-42.559 0.83984-87.695 22.566-122.58 7.9883-13.117 18.336-24.641 30.523-33.992 12.488-9.3945 26.379-16.766 41.156-21.84h0.50781c3.6094-1.2852 6.4375-4.1523 7.6719-7.7852 2.6992-8.6992 7.4648-16.613 13.887-23.07 1.8789-1.7383 3.9453-3.2578 6.1602-4.5352l-2.1836 17.922v0.39062-0.003906c-0.43359 4.7344 2.1719 9.2266 6.4961 11.203l17.863 8.0078 11.762 6.5508 5.8789 3.2461c2.7227 1.5859 4.6055 4.293 5.1523 7.3945l2.8555 12.824c0.45703 2.457 1.6719 4.707 3.4727 6.4375l1.0078 0.89453c10.828 9.8555 21.785 19.637 32.871 29.344l16.801 14.504 2.0703 1.793 1.0625 0.89453c0.33594 0.28125 0 0 0 0.28125v0.003906c0.16797 0.17969 0.30078 0.38672 0.39453 0.61328 0.13672 0.45703 0.13672 0.94531 0 1.4023 0.039062 0.20312 0.039062 0.41016 0 0.61328-0.32031 0.60156-0.67578 1.1797-1.0664 1.7383l-5.6016 9.5195-2.8008 4.7617-1.3984 2.4062c-0.33594 0.61719-0.28125 0.44922 0 0.33594s0 0 0 0h0.003906c-0.26562 0.26562-0.59375 0.46094-0.95312 0.55859-0.36719 0.097657-0.75391 0.097657-1.1211 0h-0.55859l-4.6484-3.0234-18.535-12.152c-4.9219-3.1797-11.125-3.6445-16.465-1.2305h-0.33594c-0.39062 0-2.1836 0.95313-3.4727 1.3438-1.2891 0.39063-2.8008 0.89453-4.1992 1.2305-2.7188 0.67188-5.4922 1.082-8.2891 1.2344-4.4961 0.32422-8.9922-0.67188-12.934-2.8555l-0.67188-0.39063v-0.003906c-3.0156-1.707-6.4883-2.4414-9.9336-2.1016-3.4492 0.34375-6.7109 1.7422-9.332 4.0078-0.95312 0.83984-1.2305 1.1211-1.6797 1.5664l-1.1758 1.2305c-0.72656 0.83984-1.3984 1.625-2.0156 2.4648-1.2734 1.6445-2.418 3.3867-3.418 5.2109-6.543 11.371-6.9648 25.266-1.1172 37.016 3.0938 6.2461 7.2227 11.926 12.207 16.797 2.2383 2.1836 4.5352 4.1445 6.8867 6.2148l5.6016 4.6484v0.003906c7.0391 5.7812 13.594 12.133 19.598 18.984 5.2031 6 9.1797 12.965 11.707 20.492 2.0703 5.0117 4.9258 9.6602 8.4531 13.777 2.4648 2.2383 4.3672 1.6797 5.6016-1.0078 1.6406-4.2578 2.2539-8.8438 1.793-13.383-0.4375-9.8047-3.1016-19.379-7.7852-28-5.25-9.4375-11.727-18.137-19.266-25.871-1.9023-1.9609-3.7539-3.9766-5.6016-5.8789-1.8477-1.9023-4.0312-3.9219-5.6016-5.6016h0.003906c-3.1523-3.1289-5.8125-6.7188-7.8945-10.641-1.6953-2.8242-2.3281-6.1602-1.793-9.4102 0.066406-0.33984 0.16016-0.67969 0.28125-1.0078 6.5625 2.1914 13.469 3.1602 20.383 2.8555 4.5078-0.19922 8.9883-0.81641 13.383-1.8477 1.9023-0.44922 3.7539-0.95313 5.6016-1.5117l12.992 8.9609 4.5352 3.1367c2.5781 1.7422 5.3867 3.1172 8.3438 4.0859 6.1758 2.0547 12.82 2.2383 19.098 0.52344 6.2773-1.7148 11.91-5.2461 16.184-10.152 1.1016-1.2539 2.1094-2.582 3.0234-3.9766l1.457-2.3516 2.8555-4.7031 5.6016-9.4648h-0.003906c1.5469-2.332 2.8594-4.8086 3.9219-7.3945 1.125-3 1.8047-6.1523 2.0156-9.3516 0.51953-6.625-0.89844-13.262-4.0859-19.094-1.6133-2.9062-3.6328-5.5625-5.9922-7.8984l-1.8477-1.6797-1.0625-0.95312-2.0703-1.793-16.801-14.391-29.734-25.258-1.0625-4.0312-1.3984-4.9844-0.007813 0.003906c-0.77734-2.4648-1.7891-4.8438-3.0234-7.1133-2.4609-4.5586-5.7891-8.5938-9.8008-11.871-2.0039-1.6445-4.1602-3.0859-6.4414-4.3125l-2.8008-1.3984-2.0703-0.95312-22.961-10.754 2.2383-18.594zm-249.65 328.95 5.9922-6.8867c2.375-2.6758 4.9219-5.2031 7.6133-7.5625 11.293-9.8789 25.02-16.566 39.762-19.375 3.6992-0.70703 7.4414-1.1758 11.199-1.3984h9.9102c24.305 0 48.664 0.33594 72.801 1.0078l23.016 0.95313c15.512-0.72656 31.023-1.0078 46.48-1.0078h11.594c4.1445 0 6.832 0 13.383 0.44922v-0.003906c11.539 1.4609 22.152 7.0742 29.848 15.793 3.5469 3.9805 6.3711 8.5469 8.3438 13.496 1.3828-1.6445 2.8203-3.2852 4.3125-4.9297 12.508-13.738 25.18-27.328 38.023-40.77l19.715-20.215 4.8711-4.9844c0.61719-0.67187 2.2383-2.1836 3.4727-3.3047 1.2305-1.1211 2.7422-2.2383 4.1992-3.3047v0.003906c5.8672-4.0586 12.527-6.8281 19.543-8.1211 11.777-2.125 23.93 0.070312 34.215 6.1875 10.289 6.1172 18.02 15.742 21.777 27.109 3.7539 11.363 3.2812 23.699-1.3359 34.742-1.3203 3.2656-3.0117 6.3633-5.0391 9.2422-0.98828 1.4531-2.0742 2.8398-3.25 4.1445-1.0625 1.1758-2.5742 2.8555-3.2461 3.4727l-20.105 19.434-25.594 24.305c-16.316 17.324-32.871 34.348-49.672 51.07l-25.367 24.805-6.3828 6.2148c-2.5195 2.4648-5.1523 4.7617-7.9531 6.9453-16.656 13.066-37.074 20.43-58.238 21h-18.426l-17.695-0.55859-70.895-1.9609c-19.992-0.50391-39.762-1.793-58.52-4.0898v0.003906c-12.027 9.3398-24.676 17.852-37.855 25.477-8.6797 4.9297-15.793 6.9453-15.23 0.50391h-0.003906c1.1172-5.3242 3.6055-10.27 7.2266-14.336l31.863-31.191c3.1328-3.0469 7.332-4.7539 11.703-4.7578 49.617 0 99.344-0.50391 148.96 0h17.695c15.078-0.62109 29.57-6.0156 41.383-15.402 3.5859-2.8008 8.5117-7.6172 12.992-11.594l13.719-12.375c9.2227-8.1758 18.555-16.223 28-24.137l65.355-68.543 8.1758-8.457 4.0898-4.2578-0.003906 0.003906c0.82031-0.89062 1.5703-1.8477 2.2422-2.8555 2.4531-3.7773 3.4766-8.3047 2.8945-12.77-0.58594-4.4648-2.7422-8.5742-6.0859-11.594-3.3438-3.0156-7.6523-4.7422-12.152-4.8672-4.1797-0.11719-8.2812 1.1641-11.648 3.6367-0.57422 0.39062-1.1172 0.82031-1.625 1.2891l-0.39062 0.33594-0.67188 0.61719-1.2891 1.2891-21.223 20.273-42.898 39.758c-6.2773 6.0508-13.344 11.23-21 15.398-1.9844 9.1055-6.6875 17.391-13.488 23.762-6.8008 6.3711-15.375 10.523-24.59 11.91-2.6523 0.38281-5.332 0.55078-8.0078 0.50391h-5.6016l-11.594-0.50391c-24.477-0.31641-48.707-4.9609-71.566-13.719-6.2734-2.6875-10.473-6.2148-7.2812-10.414v-0.003906c2.6719-2.8242 6.2695-4.5938 10.137-4.9805 18.594 0.50391 37.238 0.55859 56 0.44922h28v-0.003906c1.4922 0.13672 2.9922 0.13672 4.4805 0 1.0938-0.15625 2.1641-0.4375 3.1914-0.83984 2.1094-0.79297 4.0195-2.0352 5.6016-3.6406 3.1641-3.207 4.8516-7.5898 4.6484-12.094-0.15625-4.6406-2.1758-9.0195-5.6016-12.152-1.8086-1.6172-3.9219-2.8555-6.2148-3.6406-1.2422-0.40625-2.5156-0.70312-3.8086-0.89453l-6.9453-0.55859c-9.2227-0.78516-18.426-1.793-27.609-3.0234-40.992 1.1211-81.984 2.8555-123.2 3.1914l-9.9102-0.003906c-2.5977-0.03125-5.1992 0.082031-7.7852 0.33594-5.1523 0.5-10.227 1.6094-15.121 3.3047-7.3633 2.4414-14.215 6.2188-20.215 11.145l-7.168 6.3281c-10.586 9.4062-21.223 12.656-26.879 8.2891-5.6562-4.3711-1.0625-15.625 7.9531-26.098z"/>
  <use x="70" y="644" xlink:href="#g"/>
  <use x="90.550781" y="644" xlink:href="#a"/>
  <use x="104.359375" y="644" xlink:href="#b"/>
  <use x="123.347656" y="644" xlink:href="#e"/>
  <use x="142.242188" y="644" xlink:href="#d"/>
  <use x="155.628906" y="644" xlink:href="#b"/>
  <use x="174.617188" y="644" xlink:href="#k"/>
  <use x="204.410156" y="644" xlink:href="#j"/>
  <use x="224.453125" y="644" xlink:href="#i"/>
  <use x="252.453125" y="644" xlink:href="#h"/>
  <use x="275.433594" y="644" xlink:href="#a"/>
  <use x="289.242188" y="644" xlink:href="#b"/>
  <use x="308.234375" y="644" xlink:href="#u"/>
  <use x="328.273438" y="644" xlink:href="#c"/>
  <use x="347.511719" y="644" xlink:href="#a"/>
  <use x="371.070312" y="644" xlink:href="#g"/>
  <use x="391.617188" y="644" xlink:href="#a"/>
  <use x="405.425781" y="644" xlink:href="#b"/>
  <use x="424.414062" y="644" xlink:href="#t"/>
  <use x="441.082031" y="644" xlink:href="#f"/>
  <use x="461.015625" y="644" xlink:href="#e"/>
  <use x="479.910156" y="644" xlink:href="#a"/>
  <use x="70" y="672" xlink:href="#s"/>
  <use x="82.183594" y="672" xlink:href="#a"/>
  <use x="95.992188" y="672" xlink:href="#c"/>
  <use x="115.226562" y="672" xlink:href="#r"/>
  <use x="154.152344" y="672" xlink:href="#d"/>
  <use x="167.535156" y="672" xlink:href="#q"/>
  <use x="187.46875" y="672" xlink:href="#b"/>
  <use x="216.207031" y="672" xlink:href="#p"/>
  <use x="239.640625" y="672" xlink:href="#c"/>
  <use x="258.878906" y="672" xlink:href="#o"/>
  <use x="278.8125" y="672" xlink:href="#f"/>
  <use x="308.492188" y="672" xlink:href="#n"/>
  <use x="329.015625" y="672" xlink:href="#a"/>
  <use x="342.820312" y="672" xlink:href="#c"/>
  <use x="362.058594" y="672" xlink:href="#m"/>
  <use x="371.65625" y="672" xlink:href="#b"/>
  <use x="390.648438" y="672" xlink:href="#l"/>
  <use x="407.242188" y="672" xlink:href="#d"/>
 </g>
</svg>
